<?xml version="1.0" encoding="utf-8"?>
<!-- Generator: Adobe Illustrator 19.0.1, SVG Export Plug-In . SVG Version: 6.00 Build 0)  -->
<!DOCTYPE svg PUBLIC "-//W3C//DTD SVG 1.1//EN" "http://www.w3.org/Graphics/SVG/1.1/DTD/svg11.dtd">
<svg version="1.1" id="Layer_1" xmlns="http://www.w3.org/2000/svg" xmlns:xlink="http://www.w3.org/1999/xlink" x="0px" y="0px"
	 viewBox="0 0 24 24" style="enable-background:new 0 0 24 24;" xml:space="preserve">
<style type="text/css">
	.st0{fill:#83FFE7;}
</style>
<g>
	<g>
		<path class="st0" d="M8.2,17.6c2.3,0.5,4.7,2.9,7.6,2.9c0.6,0,1.2-0.1,1.9-0.4c-0.2,2.2-1.1,3.5-2.3,3.5c-3.2,0-6.1-5.1-10.1-5.1
			c-0.2,0-0.3,0-0.5,0L8.1,3C6.2,3.8,5,5.5,5,7.9c0,1.2,0.3,1.3,0.3,1.5c-1.6,0-2.4-0.6-2.4-2.2c0-3,4.2-5.9,7.9-5.9
			c0.3,0,0.6,0,0.9,0L8.2,17.6z"/>
		<path class="st0" d="M17,8.8c-0.8,0-1.4,0.9-1.8,2.1l-1.5,7.2h-3.3l2.4-11.3h3.3L15.8,8c0.9-1.1,1.9-1.3,2.6-1.3
			c1.4,0,2.5,0.7,2.5,2.6c0,1.8-1.1,4.6-1.1,5.8c0,0.6,0.2,0.9,0.9,0.9c0.4,0,0.6,0,0.7-0.1c-0.2,1.6-1.3,2.3-2.5,2.3
			c-1.7,0-2.3-1.3-2.3-2.6c0-1.5,1-4.3,1-5.8C17.8,9.2,17.5,8.8,17,8.8z"/>
	</g>
	<g>
		<path d="M7.8,16.5c2.3,0.5,4.7,2.9,7.6,2.9c0.6,0,1.2-0.1,1.9-0.4c-0.2,2.2-1.1,3.5-2.3,3.5c-3.2,0-6.1-5.1-10.1-5.1
			c-0.2,0-0.3,0-0.5,0L7.7,1.9c-2,0.8-3.2,2.5-3.2,4.9c0,1.2,0.3,1.3,0.3,1.5c-1.6,0-2.4-0.6-2.4-2.2c0-3,4.2-5.9,7.9-5.9
			c0.3,0,0.6,0,0.9,0L7.8,16.5z"/>
		<path d="M16.6,7.6c-0.8,0-1.4,0.9-1.8,2.1L13.3,17H10l2.4-11.3h3.3l-0.2,1.2c0.9-1.1,1.9-1.3,2.6-1.3c1.4,0,2.5,0.7,2.5,2.6
			c0,1.8-1.1,4.6-1.1,5.8c0,0.6,0.2,0.9,0.9,0.9c0.4,0,0.6,0,0.7-0.1c-0.2,1.6-1.3,2.3-2.5,2.3c-1.7,0-2.3-1.3-2.3-2.6
			c0-1.5,1-4.3,1-5.8C17.4,8,17.1,7.6,16.6,7.6z"/>
	</g>
</g>
</svg>
